<?xml version="1.0" encoding="iso-8859-1"?>
<!-- Generator: Adobe Illustrator 19.0.0, SVG Export Plug-In . SVG Version: 6.00 Build 0)  -->
<svg version="1.1" id="Layer_1" xmlns="http://www.w3.org/2000/svg" xmlns:xlink="http://www.w3.org/1999/xlink" x="0px" y="0px"
	 viewBox="0 0 508.182 508.182" style="enable-background:new 0 0 508.182 508.182;" xml:space="preserve">
<g>
	<path style="fill:#EFDC81;" d="M424.078,426.37l76.8-402.8l-298.4,328.4L424.078,426.37z M462.878,109.17c0.4-1.2,1.2-1.6,2.4-1.6
		c1.2,0.4,1.6,1.2,1.6,2.4l-6.4,32.8c0,0.8-1.2,1.6-2,1.6h-0.4c-1.2-0.4-1.6-1.2-1.6-2.4L462.878,109.17z M452.078,176.77
		c1.2,0.4,1.6,1.2,1.6,2.4l-41.6,218c0,0.8-1.2,1.6-2,1.6h-0.4c-1.2-0.4-1.6-1.2-1.6-2.4l41.6-218
		C449.678,177.17,450.878,176.77,452.078,176.77z"/>
	<polygon style="fill:#EFDC81;" points="8.878,286.77 198.478,350.77 494.878,24.37 	"/>
</g>
<path style="fill:#E9B526;" d="M202.078,485.17l70.4-110.4l-69.2-22.8l-1.2,2.8V485.17z"/>
<polygon style="fill:#CCCCCC;" points="200.878,355.57 202.478,355.97 200.878,354.77 "/>
<path d="M425.278,432.77c-0.4,0-0.8,0-1.2-0.4l-421.2-141.6c-1.6-0.4-2.4-2-2.8-3.6s0.8-3.2,2-4l500-270.4c1.2-0.8,3.2-0.8,4.4,0.4
	c1.2,0.8,2,2.4,1.6,4l-78.8,412c-0.4,1.2-0.8,2-2,2.8C426.878,432.77,426.078,432.77,425.278,432.77z M14.078,286.37l408.4,137.2
	l76-399.2L14.078,286.37z"/>
<path d="M198.878,356.77c-0.8,0-2-0.4-2.8-1.2c-1.6-1.6-1.6-4-0.4-5.6l305.2-336c1.6-1.6,4-1.6,5.6-0.4c1.6,1.6,1.6,4,0.4,5.6
	l-305.2,336C201.278,356.37,200.078,356.77,198.878,356.77z"/>
<path d="M200.078,495.97c-0.4,0-0.8,0-1.2,0c-1.6-0.4-2.8-2-2.8-4v-137.6c0-2.4,1.6-4,4-4s4,1.6,4,4v124l47.2-73.2
	c1.2-2,3.6-2.4,5.6-1.2c2,1.2,2.4,3.6,1.2,5.6l-54.8,84.4C202.878,495.17,201.278,495.97,200.078,495.97z"/>
<path d="M458.478,146.37c-0.4,0-0.4,0-0.8,0c-2-0.4-3.6-2.4-3.2-4.8l6.4-32.8c0.4-2,2.4-3.6,4.8-3.2c2,0.4,3.6,2.4,3.2,4.8
	l-6.4,32.8C462.078,144.77,460.478,146.37,458.478,146.37z"/>
<path d="M410.078,400.77c-0.4,0-0.4,0-0.8,0c-2-0.4-3.6-2.4-3.2-4.8l41.6-218c0.4-2,2.4-3.6,4.8-3.2c2,0.4,3.6,2.4,3.2,4.8
	l-41.6,218C413.678,399.57,411.678,400.77,410.078,400.77z"/>
<g>
</g>
<g>
</g>
<g>
</g>
<g>
</g>
<g>
</g>
<g>
</g>
<g>
</g>
<g>
</g>
<g>
</g>
<g>
</g>
<g>
</g>
<g>
</g>
<g>
</g>
<g>
</g>
<g>
</g>
</svg>
